<svg width="83" height="83" xmlns="http://www.w3.org/2000/svg"><defs id="SvgjsDefs1423"></defs><g id="SvgjsG1424" featurekey="root" fill="#ffffff"></g><g id="SvgjsG1425" featurekey="symbol1" fill="#27c1d6" transform="matrix(16.66666742355108,0,0,16.66666742355108,5.1,3.3)"><title>abstract flower</title><path d="M2.1,2.4C1.9,2.6,1.8,2.7,1.6,2.9c-0.3,0.3-0.8,0.3-1,0c0,0,0,0,0,0C0.4,2.7,0.2,2.6,0,2.4l0,0c0,0,0.1-0.1,0.1-0.1 C0.3,2.1,0.4,2,0.5,1.9c0.3-0.3,0.7-0.3,1,0c0,0,0,0,0,0C1.8,2,1.9,2.2,2.1,2.4C2.1,2.4,2.1,2.4,2.1,2.4c0.1-0.1,0.2-0.1,0.2-0.2 C2.5,2.1,2.5,2,2.6,1.9c0.3-0.3,0.8-0.3,1,0c0,0,0,0,0,0C3.9,2,4,2.2,4.2,2.4c0,0,0,0,0,0c0,0-0.1,0-0.1,0.1C4,2.6,3.8,2.8,3.7,2.9 c-0.3,0.3-0.7,0.3-1,0C2.5,2.8,2.3,2.6,2.1,2.4C2.1,2.4,2.1,2.4,2.1,2.4z"></path><path d="M2.1,0c0.2,0.2,0.4,0.4,0.6,0.6c0.3,0.3,0.3,0.7,0,1C2.5,1.7,2.3,1.9,2.1,2.1l0,0C2,2,1.9,1.9,1.9,1.9 C1.8,1.7,1.6,1.6,1.5,1.5c-0.2-0.3-0.2-0.7,0-1C1.8,0.4,1.9,0.2,2.1,0L2.1,0z"></path><path d="M2.1,4.4C2,4.3,2,4.2,1.9,4.1C1.8,4,1.7,4,1.6,3.9C1.4,3.6,1.5,3.2,1.7,3s0.7-0.2,0.9,0.1c0.2,0.2,0.2,0.6,0,0.8 C2.4,4.1,2.3,4.2,2.1,4.4L2.1,4.4z"></path></g></svg>
