<svg width="434" height="511.99999" xmlns="http://www.w3.org/2000/svg">
 <g>
  <title>background</title>
  <rect x="-1" y="-1" width="436" height="513.99999" id="canvas_background" fill="none"/>
 </g>

 <g>
  <title>Layer 1</title>
  <g id="surface1">
   <path d="m174.05859,338.44141l43.39063,0l0,26.03515l-43.39063,0l0,-26.03515zm0,0" fill="#e5e5e5" fill-rule="nonzero" id="svg_1"/>
   <path d="m217.44922,338.44141l43.39062,0l0,26.03515l-43.39062,0l0,-26.03515zm0,0" fill="#cccccc" fill-rule="nonzero" id="svg_2"/>
   <path d="m286.875,216.94922c0,-14.37891 -11.65625,-26.03516 -26.03516,-26.03516c-14.3789,0 -26.03515,11.65625 -26.03515,26.03516l0,26.03516l26.03515,0c14.37891,0 26.03516,-11.65625 26.03516,-26.03516zm0,0" fill="#e5e5e5" fill-rule="nonzero" id="svg_3"/>
   <path d="m174.05859,242.98438l26.03516,0l0,-26.03516c0,-14.37891 -11.65625,-26.03516 -26.03516,-26.03516c-14.3789,0 -26.03515,11.65625 -26.03515,26.03516c0,14.37891 11.65625,26.03516 26.03515,26.03516zm0,0" fill="#cccccc" fill-rule="nonzero" id="svg_4"/>
   <path d="m156.70313,407.86328c0,9.58594 7.76953,17.35547 17.35546,17.35547l86.78125,0c9.58594,0 17.35547,-7.76953 17.35547,-17.35547c0,-9.58203 -7.76953,-17.35547 -17.35547,-17.35547l-86.78125,0c-9.58593,0 -17.35546,7.77344 -17.35546,17.35547zm0,0" fill="rgb(57.647059%,58.431373%,59.607843%)" fill-rule="nonzero" id="svg_5"/>
   <path d="m156.70313,442.57422c0,9.58594 7.76953,17.35937 17.35546,17.35937l86.78125,0c9.58594,0 17.35547,-7.77343 17.35547,-17.35937c0,-9.58594 -7.76953,-17.35547 -17.35547,-17.35547l-86.78125,0c-9.58593,0 -17.35546,7.77344 -17.35546,17.35547zm0,0" fill="rgb(50.196078%,50.980392%,52.156863%)" fill-rule="nonzero" id="svg_6"/>
   <path d="m182.73828,477.28906c0,19.17188 15.53906,34.71094 34.71094,34.71094c19.17187,0 34.71094,-15.53906 34.71094,-34.71094l0,-17.35547l-69.42188,0l0,17.35547zm0,0" fill="rgb(66.27451%,48.627451%,31.372549%)" fill-rule="nonzero" id="svg_7"/>
   <path d="m156.70313,373.15234c0,9.58594 7.76953,17.35547 17.35546,17.35547l86.78125,0c9.58594,0 17.35547,-7.76953 17.35547,-17.35547c0,-9.58593 -7.76953,-17.35546 -17.35547,-17.35546l-86.78125,0c-9.58593,0 -17.35546,7.76953 -17.35546,17.35546zm0,0" fill="rgb(65.490196%,66.27451%,67.45098%)" fill-rule="nonzero" id="svg_8"/>
   <path d="m200.09375,242.98438l-26.03516,0c-14.3789,0 -26.03515,-11.65625 -26.03515,-26.03516c0,-14.37891 11.65625,-26.03516 26.03515,-26.03516c14.37891,0 26.03516,11.65625 26.03516,26.03516l0,26.03516l17.35547,0l0,-164.88282c-76.68359,0.02735 -138.82422,62.21485 -138.79688,138.89844c0.02344,56.53906 34.32422,107.42188 86.73047,128.64453c16.52735,6.75 34.21485,10.19922 52.06641,10.15235l0,-112.8125l-17.35547,0zm0,0" fill="#cccccc" fill-rule="nonzero" id="svg_9"/>
   <path d="m217.44922,78.10156l0,164.88282l17.35547,0l0,-26.03516c0,-14.37891 11.65625,-26.03516 26.03515,-26.03516c14.37891,0 26.03516,11.65625 26.03516,26.03516c0,14.37891 -11.65625,26.03516 -26.03516,26.03516l-43.39062,0l0,112.8125c17.85156,0.04296 35.53906,-3.40235 52.06641,-10.15235c71.07812,-28.78515 105.35937,-109.73828 76.57812,-180.8164c-21.22656,-52.40235 -72.10547,-86.70704 -128.64453,-86.72657zm0,0" fill="#e5e5e5" fill-rule="nonzero" id="svg_10"/>
   <path d="m243.48438,242.98438l0,112.8125l-17.35938,0l0,-112.8125c0,-4.79297 3.88672,-8.67969 8.67969,-8.67969c4.79297,0 8.67969,3.88672 8.67969,8.67969zm0,0" fill="#666666" fill-rule="nonzero" id="svg_18"/>
   <path d="m208.76953,242.98438l0,112.8125l-17.35547,0l0,-112.8125c0,-4.79297 3.88672,-8.67969 8.67969,-8.67969c4.79297,0 8.67578,3.88672 8.67578,8.67969zm0,0" fill="#666666" fill-rule="nonzero" id="svg_19"/>
   <path d="m260.83984,251.66016c-4.79296,0 -8.67968,-3.88672 -8.67968,-8.67578c0,-4.79297 3.88672,-8.67969 8.67968,-8.67969c9.58594,0 17.35547,-7.76953 17.35547,-17.35547c0,-9.58594 -7.76953,-17.35547 -17.35547,-17.35547c-9.58593,0 -17.35546,7.76953 -17.35546,17.35547c0,4.79297 -3.88672,8.67578 -8.67969,8.67578c-4.79297,0 -8.67578,-3.88281 -8.67578,-8.67578c0,-19.17188 15.53906,-34.71094 34.71093,-34.71094c19.17188,0 34.71094,15.53906 34.71094,34.71094c0,19.17187 -15.53906,34.71094 -34.71094,34.71094zm0,0" fill="#666666" fill-rule="nonzero" id="svg_20"/>
   <path d="m174.05859,251.66016c-19.17187,0 -34.71093,-15.53907 -34.71093,-34.71094c0,-19.17188 15.53906,-34.71094 34.71093,-34.71094c19.17188,0 34.71094,15.53906 34.71094,34.71094c0,4.79297 -3.88281,8.67578 -8.67578,8.67578c-4.79297,0 -8.67969,-3.88281 -8.67969,-8.67578c0,-9.58594 -7.76953,-17.35547 -17.35547,-17.35547c-9.58593,0 -17.35546,7.76953 -17.35546,17.35547c0,9.58594 7.76953,17.35547 17.35546,17.35547c4.79297,0 8.67969,3.88672 8.67969,8.67969c0,4.78906 -3.88672,8.67578 -8.67969,8.67578zm0,0" fill="#666666" fill-rule="nonzero" id="svg_21"/>
   <path d="m260.83984,251.66016l-86.78125,0c-4.79296,0 -8.67578,-3.88672 -8.67578,-8.67578c0,-4.79297 3.88672,-8.67969 8.67578,-8.67969l86.78125,0c4.79297,0 8.67579,3.88672 8.67579,8.67969c0,4.78906 -3.88282,8.67578 -8.67579,8.67578zm0,0" fill="#666666" fill-rule="nonzero" id="svg_22"/>
   <path d="m200.09375,251.66016c-4.79297,0 -8.67969,-3.88672 -8.67969,-8.67578l0,-26.03516c0,-4.79297 3.88672,-8.67969 8.67969,-8.67969c4.79297,0 8.67578,3.88672 8.67578,8.67969l0,26.03516c0,4.79296 -3.88281,8.67578 -8.67578,8.67578zm0,0" fill="#666666" fill-rule="nonzero" id="svg_23"/>
   <path d="m234.80469,251.66016c-4.79297,0 -8.67578,-3.88672 -8.67578,-8.67578l0,-26.03516c0,-4.79297 3.88281,-8.67969 8.67578,-8.67969c4.79297,0 8.67969,3.88672 8.67969,8.67969l0,26.03516c0,4.79296 -3.88672,8.67578 -8.67969,8.67578zm0,0" fill="#666666" fill-rule="nonzero" id="svg_24"/>
  </g>
 </g>
</svg>