<svg width="434" height="511.99999" xmlns="http://www.w3.org/2000/svg">

 <g>
  <title>background</title>
  <rect fill="none" id="canvas_background" height="513.99999" width="436" y="-1" x="-1"/>
 </g>
 <g>
  <title>Layer 1</title>
  <g id="surface1">
   <path id="svg_1" fill-rule="nonzero" fill="rgb(100%,87.058824%,33.333333%)" d="m174.05859,338.44141l43.39063,0l0,26.03515l-43.39063,0l0,-26.03515zm0,0"/>
   <path id="svg_2" fill-rule="nonzero" fill="rgb(100%,89.411765%,46.666667%)" d="m217.44922,338.44141l43.39062,0l0,26.03515l-43.39062,0l0,-26.03515zm0,0"/>
   <path id="svg_3" fill-rule="nonzero" fill="rgb(100%,89.411765%,46.666667%)" d="m286.875,216.94922c0,-14.37891 -11.65625,-26.03516 -26.03516,-26.03516c-14.3789,0 -26.03515,11.65625 -26.03515,26.03516l0,26.03516l26.03515,0c14.37891,0 26.03516,-11.65625 26.03516,-26.03516zm0,0"/>
   <path id="svg_4" fill-rule="nonzero" fill="rgb(100%,87.058824%,33.333333%)" d="m174.05859,242.98438l26.03516,0l0,-26.03516c0,-14.37891 -11.65625,-26.03516 -26.03516,-26.03516c-14.3789,0 -26.03515,11.65625 -26.03515,26.03516c0,14.37891 11.65625,26.03516 26.03515,26.03516zm0,0"/>
   <path id="svg_5" fill-rule="nonzero" fill="rgb(57.647059%,58.431373%,59.607843%)" d="m156.70313,407.86328c0,9.58594 7.76953,17.35547 17.35546,17.35547l86.78125,0c9.58594,0 17.35547,-7.76953 17.35547,-17.35547c0,-9.58203 -7.76953,-17.35547 -17.35547,-17.35547l-86.78125,0c-9.58593,0 -17.35546,7.77344 -17.35546,17.35547zm0,0"/>
   <path id="svg_6" fill-rule="nonzero" fill="rgb(50.196078%,50.980392%,52.156863%)" d="m156.70313,442.57422c0,9.58594 7.76953,17.35937 17.35546,17.35937l86.78125,0c9.58594,0 17.35547,-7.77343 17.35547,-17.35937c0,-9.58594 -7.76953,-17.35547 -17.35547,-17.35547l-86.78125,0c-9.58593,0 -17.35546,7.77344 -17.35546,17.35547zm0,0"/>
   <path id="svg_7" fill-rule="nonzero" fill="rgb(66.27451%,48.627451%,31.372549%)" d="m182.73828,477.28906c0,19.17188 15.53906,34.71094 34.71094,34.71094c19.17187,0 34.71094,-15.53906 34.71094,-34.71094l0,-17.35547l-69.42188,0l0,17.35547zm0,0"/>
   <path id="svg_8" fill-rule="nonzero" fill="rgb(65.490196%,66.27451%,67.45098%)" d="m156.70313,373.15234c0,9.58594 7.76953,17.35547 17.35546,17.35547l86.78125,0c9.58594,0 17.35547,-7.76953 17.35547,-17.35547c0,-9.58593 -7.76953,-17.35546 -17.35547,-17.35546l-86.78125,0c-9.58593,0 -17.35546,7.76953 -17.35546,17.35546zm0,0"/>
   <path id="svg_9" fill-rule="nonzero" fill="rgb(100%,87.058824%,33.333333%)" d="m200.09375,242.98438l-26.03516,0c-14.3789,0 -26.03515,-11.65625 -26.03515,-26.03516c0,-14.37891 11.65625,-26.03516 26.03515,-26.03516c14.37891,0 26.03516,11.65625 26.03516,26.03516l0,26.03516l17.35547,0l0,-164.88282c-76.68359,0.02735 -138.82422,62.21485 -138.79688,138.89844c0.02344,56.53906 34.32422,107.42188 86.73047,128.64453c16.52735,6.75 34.21485,10.19922 52.06641,10.15235l0,-112.8125l-17.35547,0zm0,0"/>
   <path id="svg_10" fill-rule="nonzero" fill="rgb(100%,89.411765%,46.666667%)" d="m217.44922,78.10156l0,164.88282l17.35547,0l0,-26.03516c0,-14.37891 11.65625,-26.03516 26.03515,-26.03516c14.37891,0 26.03516,11.65625 26.03516,26.03516c0,14.37891 -11.65625,26.03516 -26.03516,26.03516l-43.39062,0l0,112.8125c17.85156,0.04296 35.53906,-3.40235 52.06641,-10.15235c71.07812,-28.78515 105.35937,-109.73828 76.57812,-180.8164c-21.22656,-52.40235 -72.10547,-86.70704 -128.64453,-86.72657zm0,0"/>
   <path id="svg_11" fill-rule="nonzero" fill="rgb(100%,59.607843%,6.666667%)" d="m217.44922,52.06641c-4.79297,0 -8.67969,-3.88282 -8.67969,-8.67578l0,-34.71485c0,-4.79297 3.88672,-8.67578 8.67969,-8.67578c4.79297,0 8.67578,3.88672 8.67578,8.67578l0,34.71485c0,4.79296 -3.88281,8.67578 -8.67578,8.67578zm0,0"/>
   <path id="svg_12" fill-rule="nonzero" fill="rgb(100%,59.607843%,6.666667%)" d="m94.72656,102.90234c-2.30078,0 -4.51172,-0.91406 -6.13672,-2.54296l-24.55078,-24.54688c-3.32812,-3.44922 -3.23437,-8.94141 0.21485,-12.27344c3.36328,-3.24609 8.69531,-3.24609 12.05859,0l24.54688,24.55078c3.39062,3.39063 3.39062,8.88282 0,12.27344c-1.62891,1.625 -3.83204,2.53906 -6.13282,2.53906zm0,0"/>
   <path id="svg_13" fill-rule="nonzero" fill="rgb(100%,59.607843%,6.666667%)" d="m43.89063,225.625l-34.71485,0c-4.79297,0 -8.67578,-3.88281 -8.67578,-8.67578c0,-4.79297 3.88672,-8.67969 8.67578,-8.67969l34.71485,0c4.79296,0 8.67578,3.88672 8.67578,8.67969c0,4.79297 -3.88282,8.67578 -8.67578,8.67578zm0,0"/>
   <path id="svg_14" fill-rule="nonzero" fill="rgb(100%,59.607843%,6.666667%)" d="m70.17578,372.90234c-4.79297,-0.0039 -8.67578,-3.89062 -8.67578,-8.67968c0,-2.30078 0.91406,-4.50782 2.53906,-6.13672l24.55078,-24.54688c3.32813,-3.44922 8.82422,-3.54297 12.26954,-0.21484c3.44921,3.33203 3.54296,8.82422 0.21484,12.26953c-0.07031,0.07422 -0.14063,0.14453 -0.21484,0.21484l-24.54688,24.55079c-1.62891,1.625 -3.83594,2.54296 -6.13672,2.54296zm0,0"/>
   <path id="svg_15" fill-rule="nonzero" fill="rgb(100%,59.607843%,6.666667%)" d="m364.72266,372.90234c-2.30078,-0.0039 -4.50782,-0.91796 -6.13672,-2.54296l-24.54688,-24.55079c-3.44922,-3.33203 -3.54297,-8.82421 -0.21484,-12.27343c3.33203,-3.44532 8.82422,-3.53907 12.26953,-0.21094c0.07422,0.07031 0.14453,0.14062 0.21484,0.21094l24.55079,24.55078c3.38671,3.39062 3.38671,8.88672 -0.00391,12.27344c-1.625,1.625 -3.83203,2.54296 -6.13281,2.54296zm0,0"/>
   <path id="svg_16" fill-rule="nonzero" fill="rgb(100%,59.607843%,6.666667%)" d="m425.71875,225.625l-34.71094,0c-4.79297,0 -8.67578,-3.88281 -8.67578,-8.67578c0,-4.79297 3.88672,-8.67969 8.67578,-8.67969l34.71094,0c4.79297,0 8.67969,3.88672 8.67969,8.67969c0,4.79297 -3.88672,8.67578 -8.67969,8.67578zm0,0"/>
   <path id="svg_17" fill-rule="nonzero" fill="rgb(100%,59.607843%,6.666667%)" d="m340.17188,102.90234c-4.79297,0 -8.67579,-3.88671 -8.67579,-8.67968c0,-2.30078 0.91407,-4.50391 2.54297,-6.13282l24.54688,-24.55078c3.33203,-3.44531 8.82422,-3.54297 12.27344,-0.21093c3.44531,3.32812 3.54296,8.82031 0.21093,12.26953c-0.07031,0.07422 -0.14062,0.14453 -0.21093,0.21484l-24.55079,24.54688c-1.6289,1.6289 -3.83593,2.54296 -6.13671,2.54296zm0,0"/>
   <path id="svg_18" fill-rule="nonzero" fill="rgb(100%,59.607843%,6.666667%)" d="m243.48438,242.98438l0,112.8125l-17.35938,0l0,-112.8125c0,-4.79297 3.88672,-8.67969 8.67969,-8.67969c4.79297,0 8.67969,3.88672 8.67969,8.67969zm0,0"/>
   <path id="svg_19" fill-rule="nonzero" fill="rgb(100%,59.607843%,6.666667%)" d="m208.76953,242.98438l0,112.8125l-17.35547,0l0,-112.8125c0,-4.79297 3.88672,-8.67969 8.67969,-8.67969c4.79297,0 8.67578,3.88672 8.67578,8.67969zm0,0"/>
   <path id="svg_20" fill-rule="nonzero" fill="rgb(100%,59.607843%,6.666667%)" d="m260.83984,251.66016c-4.79296,0 -8.67968,-3.88672 -8.67968,-8.67578c0,-4.79297 3.88672,-8.67969 8.67968,-8.67969c9.58594,0 17.35547,-7.76953 17.35547,-17.35547c0,-9.58594 -7.76953,-17.35547 -17.35547,-17.35547c-9.58593,0 -17.35546,7.76953 -17.35546,17.35547c0,4.79297 -3.88672,8.67578 -8.67969,8.67578c-4.79297,0 -8.67578,-3.88281 -8.67578,-8.67578c0,-19.17188 15.53906,-34.71094 34.71093,-34.71094c19.17188,0 34.71094,15.53906 34.71094,34.71094c0,19.17187 -15.53906,34.71094 -34.71094,34.71094zm0,0"/>
   <path id="svg_21" fill-rule="nonzero" fill="rgb(100%,59.607843%,6.666667%)" d="m174.05859,251.66016c-19.17187,0 -34.71093,-15.53907 -34.71093,-34.71094c0,-19.17188 15.53906,-34.71094 34.71093,-34.71094c19.17188,0 34.71094,15.53906 34.71094,34.71094c0,4.79297 -3.88281,8.67578 -8.67578,8.67578c-4.79297,0 -8.67969,-3.88281 -8.67969,-8.67578c0,-9.58594 -7.76953,-17.35547 -17.35547,-17.35547c-9.58593,0 -17.35546,7.76953 -17.35546,17.35547c0,9.58594 7.76953,17.35547 17.35546,17.35547c4.79297,0 8.67969,3.88672 8.67969,8.67969c0,4.78906 -3.88672,8.67578 -8.67969,8.67578zm0,0"/>
   <path id="svg_22" fill-rule="nonzero" fill="rgb(100%,59.607843%,6.666667%)" d="m260.83984,251.66016l-86.78125,0c-4.79296,0 -8.67578,-3.88672 -8.67578,-8.67578c0,-4.79297 3.88672,-8.67969 8.67578,-8.67969l86.78125,0c4.79297,0 8.67579,3.88672 8.67579,8.67969c0,4.78906 -3.88282,8.67578 -8.67579,8.67578zm0,0"/>
   <path id="svg_23" fill-rule="nonzero" fill="rgb(100%,59.607843%,6.666667%)" d="m200.09375,251.66016c-4.79297,0 -8.67969,-3.88672 -8.67969,-8.67578l0,-26.03516c0,-4.79297 3.88672,-8.67969 8.67969,-8.67969c4.79297,0 8.67578,3.88672 8.67578,8.67969l0,26.03516c0,4.79296 -3.88281,8.67578 -8.67578,8.67578zm0,0"/>
   <path id="svg_24" fill-rule="nonzero" fill="rgb(100%,59.607843%,6.666667%)" d="m234.80469,251.66016c-4.79297,0 -8.67578,-3.88672 -8.67578,-8.67578l0,-26.03516c0,-4.79297 3.88281,-8.67969 8.67578,-8.67969c4.79297,0 8.67969,3.88672 8.67969,8.67969l0,26.03516c0,4.79296 -3.88672,8.67578 -8.67969,8.67578zm0,0"/>
  </g>
 </g>
</svg>