<svg width="449" height="83" xmlns="http://www.w3.org/2000/svg"><defs id="SvgjsDefs1423"></defs><g id="SvgjsG1424" featurekey="root" fill="#ffffff"></g><g id="SvgjsG1425" featurekey="symbol1" fill="#27c1d6" transform="matrix(16.66666742355108,0,0,16.66666742355108,0,0)"><title>abstract flower</title><path d="M2.1,2.4C1.9,2.6,1.8,2.7,1.6,2.9c-0.3,0.3-0.8,0.3-1,0c0,0,0,0,0,0C0.4,2.7,0.2,2.6,0,2.4l0,0c0,0,0.1-0.1,0.1-0.1 C0.3,2.1,0.4,2,0.5,1.9c0.3-0.3,0.7-0.3,1,0c0,0,0,0,0,0C1.8,2,1.9,2.2,2.1,2.4C2.1,2.4,2.1,2.4,2.1,2.4c0.1-0.1,0.2-0.1,0.2-0.2 C2.5,2.1,2.5,2,2.6,1.9c0.3-0.3,0.8-0.3,1,0c0,0,0,0,0,0C3.9,2,4,2.2,4.2,2.4c0,0,0,0,0,0c0,0-0.1,0-0.1,0.1C4,2.6,3.8,2.8,3.7,2.9 c-0.3,0.3-0.7,0.3-1,0C2.5,2.8,2.3,2.6,2.1,2.4C2.1,2.4,2.1,2.4,2.1,2.4z"></path><path d="M2.1,0c0.2,0.2,0.4,0.4,0.6,0.6c0.3,0.3,0.3,0.7,0,1C2.5,1.7,2.3,1.9,2.1,2.1l0,0C2,2,1.9,1.9,1.9,1.9 C1.8,1.7,1.6,1.6,1.5,1.5c-0.2-0.3-0.2-0.7,0-1C1.8,0.4,1.9,0.2,2.1,0L2.1,0z"></path><path d="M2.1,4.4C2,4.3,2,4.2,1.9,4.1C1.8,4,1.7,4,1.6,3.9C1.4,3.6,1.5,3.2,1.7,3s0.7-0.2,0.9,0.1c0.2,0.2,0.2,0.6,0,0.8 C2.4,4.1,2.3,4.2,2.1,4.4L2.1,4.4z"></path></g><g id="SvgjsG1426" featurekey="text1" fill="#27c1d6" transform="matrix(3.3259425331896124,0,0,3.3259425331896124,97.67184403300644,-15.461199885178452)"><path d="M5.62 9.76 c2.3 0 3.88 1.48 4.54 2.92 l-1.64 0.94 c-0.7 -1.18 -1.6 -1.9 -2.9 -1.9 s-2.22 0.76 -2.22 1.8 c0 0.98 0.62 1.58 1.96 2.08 l0.98 0.36 c2.78 1.02 4.2 2.22 4.2 4.32 c0 2.58 -2.46 4.02 -4.84 4.02 c-2.44 0 -4.4 -1.46 -5 -3.44 l1.72 -0.88 c0.5 1.28 1.58 2.32 3.28 2.32 c1.4 0 2.56 -0.74 2.56 -2 c0 -1.34 -0.9 -1.88 -2.5 -2.48 l-0.96 -0.36 c-2.1 -0.78 -3.58 -1.84 -3.58 -4.02 c0 -2.12 1.92 -3.68 4.4 -3.68 z M14.64 21.96 l6.34 0 l0 2.04 l-6.74 0 l-1.8 0 l0 -14 l2.2 0 l6.16 0 l0 2.04 l-6.16 0 l0 3.92 l4.74 0 l0 2 l-4.74 0 l0 4 z M37.84 10 l0 14 l-2.26 0 l0 -9.06 l-4.2 9.06 l-1.86 0 l-4.18 -9.04 l0 9.04 l-2.26 0 l0 -14 l2.18 0 l5.2 11.02 l5.2 -11.02 l2.18 0 z M45.120000000000005 13.42 c2.36 0 5.38 1.8 5.38 5.4 c0 3.62 -3.02 5.38 -5.38 5.38 s-5.38 -1.76 -5.38 -5.38 c0 -3.6 3.02 -5.4 5.38 -5.4 z M45.120000000000005 15.34 c-1.52 0 -3.28 1.16 -3.28 3.48 c0 2.3 1.76 3.46 3.28 3.46 s3.28 -1.16 3.28 -3.46 c0 -2.32 -1.76 -3.48 -3.28 -3.48 z M58.02 13.44 c2 0 3.96 1.3 3.96 4.54 l0 6.02 l-2.16 0 l0 -5.9 c0 -1.98 -0.94 -2.76 -2.28 -2.76 c-1.72 0 -2.84 1.6 -3.08 2.62 l0 6.04 l-2.16 0 l0 -10.4 l2.16 0 l0 2.2 c0.2 -0.64 1.4 -2.36 3.56 -2.36 z M69.28 15.4 l-2.2 0 l0 5.82 c0 0.56 0.2 1 0.84 1 c0.54 0 0.92 -0.1 1.36 -0.28 l0 1.82 c-0.44 0.22 -1.02 0.36 -1.92 0.36 c-1.3 0 -2.44 -0.52 -2.44 -2.82 l0 -5.9 l-1.44 0 l0 -1.8 l1.44 0 l0 -2.44 l2.16 0 l0 2.44 l2.2 0 l0 1.8 z M76.06 13.42 c2.36 0 5.38 1.8 5.38 5.4 c0 3.62 -3.02 5.38 -5.38 5.38 s-5.38 -1.76 -5.38 -5.38 c0 -3.6 3.02 -5.4 5.38 -5.4 z M76.06 15.34 c-1.52 0 -3.28 1.16 -3.28 3.48 c0 2.3 1.76 3.46 3.28 3.46 s3.28 -1.16 3.28 -3.46 c0 -2.32 -1.76 -3.48 -3.28 -3.48 z M91.6 13.58 l2.16 0 l-6.34 14.22 l-2.16 0 l1.88 -4.14 l-4.5 -10.08 l2.16 0 l3.4 7.72 z M100.14 13.42 c1.88 0 3.12 1.12 3.38 1.8 l0 -1.62 l2.16 0 l0 10.4 l-2.16 0 l0 -1.72 c-0.26 0.84 -1.5 1.92 -3.38 1.92 c-2.36 0 -5.18 -1.76 -5.18 -5.4 c0 -3.58 2.82 -5.38 5.18 -5.38 z M100.42 15.34 c-1.62 0 -3.36 1.16 -3.36 3.46 c0 2.32 1.74 3.48 3.36 3.48 s3.2 -1.14 3.2 -3.48 c0 -2.32 -1.58 -3.46 -3.2 -3.46 z"></path></g></svg>
