<?xml version="1.0" standalone="no"?>
<!DOCTYPE svg PUBLIC "-//W3C//DTD SVG 20010904//EN"
 "http://www.w3.org/TR/2001/REC-SVG-20010904/DTD/svg10.dtd">
<svg version="1.0" xmlns="http://www.w3.org/2000/svg"
 width="700.000000pt" height="700.000000pt" viewBox="0 0 700.000000 700.000000"
 preserveAspectRatio="xMidYMid meet">
<metadata>
Created by potrace 1.11, written by Peter Selinger 2001-2013
</metadata>
<g transform="translate(0.000000,700.000000) scale(0.100000,-0.100000)"
fill="#000000" stroke="none">
<path d="M3315 6648 c-39 -40 -97 -104 -130 -143 -201 -236 -403 -396 -580
-460 -27 -10 -57 -25 -67 -32 -44 -38 -163 -320 -183 -433 -34 -196 -34 -344
0 -530 17 -93 66 -224 125 -336 54 -101 57 -105 230 -243 205 -163 293 -254
360 -369 14 -24 90 -108 170 -188 l144 -144 120 119 c67 66 137 135 157 153
20 18 63 58 96 88 146 135 290 243 413 312 36 20 73 46 82 57 139 165 195 258
241 396 35 104 42 149 42 275 0 202 -40 336 -151 511 -62 97 -113 151 -549
589 l-451 451 -69 -73z"/>
<path d="M1758 4364 c-2 -1 -27 -5 -57 -9 -170 -21 -383 -131 -534 -274 -33
-31 -211 -209 -398 -395 l-339 -339 53 -49 c64 -60 225 -191 457 -370 171
-132 294 -238 334 -288 11 -14 54 -59 96 -100 57 -57 95 -85 160 -117 146 -71
217 -87 385 -88 195 0 320 28 485 112 146 74 192 113 593 512 208 207 382 377
387 379 5 2 45 -32 88 -75 281 -280 511 -474 659 -560 46 -26 107 -68 135 -93
139 -123 296 -211 448 -251 64 -17 114 -23 205 -23 160 -1 230 12 366 69 162
68 230 123 587 479 253 252 332 337 332 355 0 38 43 86 89 100 l41 12 -106
117 c-243 267 -303 328 -372 384 -89 70 -191 131 -288 170 -57 23 -82 41 -110
75 -54 65 -81 90 -155 139 -65 43 -141 77 -209 96 -149 41 -344 43 -485 6 -22
-5 -47 -12 -56 -13 -9 -2 -52 -18 -95 -35 -203 -81 -354 -199 -472 -370 -79
-115 -166 -202 -255 -254 -49 -28 -67 -44 -67 -60 0 -34 -36 -83 -82 -113 -24
-15 -45 -30 -48 -33 -3 -4 -22 -16 -43 -29 -21 -13 -43 -28 -50 -34 -58 -54
-50 -55 -115 15 -32 34 -96 106 -142 158 -111 126 -242 256 -310 306 -77 57
-205 129 -269 151 -34 11 -77 39 -119 76 -155 136 -337 226 -512 253 -45 6
-207 13 -212 8z"/>
<path d="M3258 2695 c-2 -2 -21 -6 -43 -9 -125 -16 -288 -86 -371 -160 -188
-166 -315 -474 -315 -761 0 -164 30 -294 99 -434 48 -96 93 -140 202 -199 247
-133 299 -178 382 -332 67 -123 116 -203 144 -234 l26 -29 365 364 c365 364
416 422 472 538 101 208 99 523 -5 733 -78 159 -244 344 -369 411 -144 77
-270 109 -446 113 -75 2 -138 1 -141 -1z"/>
</g>
</svg>
